<?xml version="1.0" encoding="UTF-8" standalone="no"?>
<svg width="28px" height="26px" viewBox="0 0 28 26" version="1.1" xmlns="http://www.w3.org/2000/svg" xmlns:xlink="http://www.w3.org/1999/xlink">
    <!-- Generator: Sketch 39.1 (31720) - http://www.bohemiancoding.com/sketch -->
    <title>Nav Icon Cart</title>
    <desc>Created with Sketch.</desc>
    <defs>
        <filter x="-50%" y="-50%" width="200%" height="200%" filterUnits="objectBoundingBox" id="filter-1">
            <feOffset dx="0" dy="0" in="SourceAlpha" result="shadowOffsetOuter1"></feOffset>
            <feGaussianBlur stdDeviation="3" in="shadowOffsetOuter1" result="shadowBlurOuter1"></feGaussianBlur>
            <feColorMatrix values="0 0 0 0 0.258823529   0 0 0 0 0.258823529   0 0 0 0 0.247058824  0 0 0 0.15 0" type="matrix" in="shadowBlurOuter1" result="shadowMatrixOuter1"></feColorMatrix>
            <feMerge>
                <feMergeNode in="shadowMatrixOuter1"></feMergeNode>
                <feMergeNode in="SourceGraphic"></feMergeNode>
            </feMerge>
        </filter>
    </defs>
    <g id="Symbols" stroke="none" stroke-width="1" fill="none" fill-rule="evenodd">
        <g id="Button-Add-to-Cart-Offer-Cards" transform="translate(-62.000000, -17.000000)" fill="#FFFFFF">
            <g id="Group-4" filter="url(#filter-1)">
                <g id="Group-2" transform="translate(68.000000, 23.000000)">
                    <g id="Group-3">
                        <g id="Nav-Icon-Cart">
                            <g id="Group">
                                <path d="M13.7307692,9.86363636 L5.40532544,9.86363636 C5.09467456,9.86363636 4.90828402,9.67272727 4.78402367,9.41818182 L3.16863905,3.5 C3.10650888,3.30909091 3.16863905,3.11818182 3.29289941,2.92727273 C3.41715976,2.8 3.6035503,2.67272727 3.78994083,2.67272727 L15.3461538,2.67272727 C15.5325444,2.67272727 15.7189349,2.73636364 15.8431953,2.92727273 C15.9674556,3.05454545 16.0295858,3.30909091 15.9674556,3.5 C15.408284,5.47272727 14.9112426,7.44545455 14.352071,9.41818182 C14.2899408,9.67272727 14.0414201,9.86363636 13.7307692,9.86363636 L13.7307692,9.86363636 Z M5.84023669,8.59090909 L13.2337278,8.59090909 C13.6686391,7.06363636 14.0414201,5.47272727 14.4763314,3.94545455 L4.59763314,3.94545455 L5.84023669,8.59090909 L5.84023669,8.59090909 Z" id="Shape"></path>
                                <path d="M5.40532544,9.86363636 C5.15680473,9.86363636 4.90828402,9.67272727 4.78402367,9.41818182 L2.73372781,1.65454545 L0.807692308,1.59090909 C0.434911243,1.59090909 0.186390533,1.27272727 0.186390533,0.954545455 C0.186390533,0.572727273 0.49704142,0.318181818 0.807692308,0.318181818 L3.16863905,0.445454545 C3.41715976,0.445454545 3.66568047,0.636363636 3.72781065,0.890909091 L5.90236686,9.1 C5.96449704,9.41818182 5.77810651,9.8 5.46745562,9.86363636 C5.5295858,9.86363636 5.46745562,9.86363636 5.40532544,9.86363636 L5.40532544,9.86363636 Z" id="Shape"></path>
                                <path d="M6.8964497,13.6818182 C5.96449704,13.6818182 5.15680473,12.9181818 5.15680473,11.9 C5.15680473,10.9454545 5.90236686,10.1818182 6.8964497,10.1818182 C7.82840237,10.1818182 8.63609467,10.9454545 8.63609467,11.9 C8.5739645,12.9181818 7.82840237,13.6818182 6.8964497,13.6818182 L6.8964497,13.6818182 Z M6.8964497,11.4545455 C6.64792899,11.4545455 6.39940828,11.6454545 6.39940828,11.9636364 C6.39940828,12.2181818 6.58579882,12.4727273 6.8964497,12.4727273 C7.14497041,12.4727273 7.39349112,12.2818182 7.39349112,11.9636364 C7.33136095,11.6454545 7.14497041,11.4545455 6.8964497,11.4545455 L6.8964497,11.4545455 Z" id="Shape"></path>
                                <path d="M12.0532544,13.6818182 C11.1213018,13.6818182 10.3136095,12.9181818 10.3136095,11.9 C10.3136095,10.9454545 11.0591716,10.1818182 12.0532544,10.1818182 C12.9852071,10.1818182 13.7928994,10.9454545 13.7928994,11.9 C13.7928994,12.9181818 12.9852071,13.6818182 12.0532544,13.6818182 L12.0532544,13.6818182 Z M12.0532544,11.4545455 C11.8047337,11.4545455 11.556213,11.6454545 11.556213,11.9636364 C11.556213,12.2181818 11.7426036,12.4727273 12.0532544,12.4727273 C12.3017751,12.4727273 12.5502959,12.2818182 12.5502959,11.9636364 C12.5502959,11.6454545 12.3017751,11.4545455 12.0532544,11.4545455 L12.0532544,11.4545455 Z" id="Shape"></path>
                            </g>
                        </g>
                    </g>
                </g>
            </g>
        </g>
    </g>
</svg>